<svg id="Layer_1" data-name="Layer 1" xmlns="http://www.w3.org/2000/svg" viewBox="0 0 238.09 226.36"><defs><style>.cls-1{fill:#2f4858;}</style></defs><path class="cls-1" d="M38.56,62.51h1.36c18,0,36.05,0,54.08,0,11.33,0,20.57,7.61,22.46,18.77,1.56,9.23-1.63,16.89-8.94,22.77-1.4,1.13-2.91,2.13-4.36,3.19,0,0,0,.11,0,0,2.41.72,4.94,1.12,7.14,2.19,6.49,3.13,10.07,8.43,10.36,15.66.21,5.2.41,10.44-1.08,15.56A30.14,30.14,0,0,1,91.1,162.42c-17.12.1-34.24,0-51.37,0-.35,0-.7,0-1.17-.07Zm21.2,83.93c9.4,0,18.6.27,27.77-.08a14,14,0,0,0,13.3-13.63c.25-8.37-6-14.87-14.61-15-8.41-.08-16.82,0-25.23,0a9.22,9.22,0,0,0-1.23.16Zm.06-67.31v22.78a7.09,7.09,0,0,0,.84.1c8.64,0,17.29.16,25.92-.16,5.93-.23,10.32-5.45,10.28-11.39S92.25,79.35,86.4,79.2C77.59,79,68.76,79.13,59.82,79.13Z"/><path class="cls-1" d="M199.59,130.68H146.86c-1,6,3.34,13.53,9.36,16.13a21.27,21.27,0,0,0,14.28,1.08,13.78,13.78,0,0,0,8.9-7.07,2.41,2.41,0,0,1,1.66-1.17c5.17-.09,10.34-.05,15.5,0a8.81,8.81,0,0,1,1,.14,32.29,32.29,0,0,1-5.8,10.78c-9.29,11.49-21.29,16.63-35.86,13.53S132.12,151.45,128,137.33c-5.4-18.35,3.15-37.92,19.63-45.92,19.71-9.57,43.07.63,50.26,22a40.81,40.81,0,0,1,2.1,15.07c0,.48-.08,1-.14,1.44A7.31,7.31,0,0,1,199.59,130.68Zm-19.89-13a15.7,15.7,0,0,0-16.82-15.56c-8.22.48-15.39,8.12-14.52,15.56Z"/><path class="cls-1" d="M143.23,79V69.44h41.16V79Z"/></svg>