<svg xmlns="http://www.w3.org/2000/svg" viewBox="0 0 640.65 451.26"><defs><style>.cls-1{isolation:isolate;}.cls-2{fill:#2f4858;}.cls-2,.cls-4{mix-blend-mode:multiply;}.cls-3{fill:#fff;}.cls-4{fill:#7a8c86;}</style></defs><g class="cls-1"><g id="Layer_1" data-name="Layer 1"><circle class="cls-2" cx="427.43" cy="225.63" r="190.63"/><path class="cls-3" d="M405.35,215.65a11.32,11.32,0,0,0-7.88-3.22c-6.32,0-10.59,4.66-10.59,11.06,0,6.14,4.44,10.89,10.63,10.89a11.54,11.54,0,0,0,7.84-3.36v5.27a15.89,15.89,0,0,1-8,2.18,14.57,14.57,0,0,1-10.28-4,14.23,14.23,0,0,1-4.66-11,15.2,15.2,0,0,1,4.66-11.37c3-2.83,6.49-3.79,10.5-3.79a13.83,13.83,0,0,1,7.75,2.09Z"/><path class="cls-3" d="M428.69,228.76a9.8,9.8,0,1,1-9.8-9.67A9.52,9.52,0,0,1,428.69,228.76Zm-4.35,0c0-4.18-2.75-5.88-5.45-5.88s-5.44,1.7-5.44,5.88c0,3.53,2.09,5.84,5.44,5.84S424.34,232.33,424.34,228.8Z"/><path class="cls-3" d="M446.55,206.16h4.26V237.9h-4.26V236a7.07,7.07,0,0,1-5.49,2.48c-5.66,0-8.89-4.7-8.89-9.76,0-6,4.1-9.62,8.93-9.62a6.71,6.71,0,0,1,5.45,2.61Zm-10,22.64c0,3.18,2,5.84,5.09,5.84,2.71,0,5.19-2,5.19-5.8,0-4-2.48-5.92-5.19-5.92C438.53,222.92,436.53,225.53,436.53,228.8Z"/><path class="cls-3" d="M472.63,233.72a9.58,9.58,0,0,1-3.09,3.36,10.15,10.15,0,0,1-5.4,1.39,8.12,8.12,0,0,1-6.18-2.35,9.81,9.81,0,0,1-2.7-7,10.77,10.77,0,0,1,2.91-7.54,8.38,8.38,0,0,1,6.14-2.48,7.9,7.9,0,0,1,5.88,2.39c2.36,2.44,2.57,5.84,2.57,7.76v.52H459.61a6,6,0,0,0,1.57,3.7,4.37,4.37,0,0,0,3.27,1.18,4.45,4.45,0,0,0,2.91-.92,6.49,6.49,0,0,0,1.7-2Zm-4.22-7.45a4.49,4.49,0,0,0-1.31-2.48,4.09,4.09,0,0,0-2.87-1,4.16,4.16,0,0,0-3,1.17,4.76,4.76,0,0,0-1.3,2.35Z"/><circle class="cls-4" cx="160.09" cy="227.62" r="137.5"/><path class="cls-3" d="M122.63,215c3.05,0,5.71.33,8.14,2.14a10.82,10.82,0,0,1,4.2,8.82,10.45,10.45,0,0,1-4.4,8.83c-2.56,1.8-4.95,2.1-8,2.1H118V215Zm-1.24,18.74h1.44a9.44,9.44,0,0,0,5.81-1.55,7.68,7.68,0,0,0,3-6.23,7.81,7.81,0,0,0-3-6.3,9.78,9.78,0,0,0-5.84-1.51h-1.44Z"/><path class="cls-3" d="M151,233.72a7.11,7.11,0,0,1-2.33,2.52,7.6,7.6,0,0,1-4.07,1,6.16,6.16,0,0,1-4.66-1.77,7.41,7.41,0,0,1-2-5.28,8.09,8.09,0,0,1,2.2-5.68,6.33,6.33,0,0,1,4.62-1.87,6,6,0,0,1,4.43,1.81,8.29,8.29,0,0,1,1.94,5.84v.39h-9.91a4.58,4.58,0,0,0,1.18,2.79,3.32,3.32,0,0,0,2.46.89,3.4,3.4,0,0,0,2.2-.69,5.13,5.13,0,0,0,1.28-1.51Zm-3.18-5.61a3.28,3.28,0,0,0-1-1.87,3,3,0,0,0-2.16-.79,3.14,3.14,0,0,0-2.27.88,3.69,3.69,0,0,0-1,1.78Z"/><path class="cls-3" d="M160.43,226.7a2.29,2.29,0,0,0-2-1.18,1.37,1.37,0,0,0-1,.36,1,1,0,0,0-.29.72.86.86,0,0,0,.46.78c.19.14.39.2,1.08.56l1.64.82A6.5,6.5,0,0,1,162.3,230a3.4,3.4,0,0,1,1,2.56,4.6,4.6,0,0,1-1.21,3.15,5,5,0,0,1-3.87,1.54,4.77,4.77,0,0,1-3-.88,5.35,5.35,0,0,1-1.77-2.53l2.62-1.25a3.76,3.76,0,0,0,.76,1.32,2,2,0,0,0,1.41.52,1.9,1.9,0,0,0,1.31-.46,1.64,1.64,0,0,0,.46-1.08,1.48,1.48,0,0,0-.43-1.05,4.27,4.27,0,0,0-1.37-.85l-1.18-.56a7.05,7.05,0,0,1-1.91-1.18,3,3,0,0,1-1-2.33,4.25,4.25,0,0,1,1.15-3,4.43,4.43,0,0,1,3.38-1.32,4.26,4.26,0,0,1,2.55.73,4.7,4.7,0,0,1,1.58,1.7Z"/><path class="cls-3" d="M167.82,215.28a2.07,2.07,0,1,1-2.07,2.07A2,2,0,0,1,167.82,215.28Zm1.61,7.77v13.82h-3.22V223.05Z"/><path class="cls-3" d="M183.6,223.05h3.21v12.7c0,3.25-.36,5.58-2.26,7.19a7,7,0,0,1-4.59,1.47,6.1,6.1,0,0,1-4.53-1.7,7.77,7.77,0,0,1-2-4.3h3.11a4.57,4.57,0,0,0,1,2.16,3.26,3.26,0,0,0,2.49,1,3.46,3.46,0,0,0,2.53-.91,4.55,4.55,0,0,0,1-3.48v-1.81a5,5,0,0,1-4.2,2,5.85,5.85,0,0,1-4.56-1.87,7.79,7.79,0,0,1-2.07-5.48,7.29,7.29,0,0,1,2-5.34,6.27,6.27,0,0,1,4.69-1.91,5.19,5.19,0,0,1,4.1,1.87Zm-6.14,3.45a5.08,5.08,0,0,0,0,7,3.79,3.79,0,0,0,2.46.92,3.5,3.5,0,0,0,2.69-1.12,5.08,5.08,0,0,0-.1-6.72,3.4,3.4,0,0,0-2.59-1A3.35,3.35,0,0,0,177.46,226.5Z"/><path class="cls-3" d="M190.85,223.05h3.22v1.28a4.76,4.76,0,0,1,3.74-1.64,4.63,4.63,0,0,1,4.07,1.87c.52.76.85,1.71.85,3.84v8.47h-3.22v-7.68c0-3.51-1.31-3.61-2.52-3.61-1.45,0-2.92.2-2.92,4.66v6.63h-3.22Z"/></g></g></svg>