<svg id="Layer_1" data-name="Layer 1" xmlns="http://www.w3.org/2000/svg" viewBox="0 0 238.09 226.36"><defs><style>.cls-1{fill:#2f4858;}</style></defs><path class="cls-1" d="M123.58,184h-8.8c-1.72-.2-3.44-.37-5.16-.6a68.32,68.32,0,0,1-28.54-10.59q-24.75-16.29-30.89-45.31c-.66-3.11-.92-6.3-1.37-9.46v-8.8c.09-.57.18-1.15.28-1.73.73-4.23,1.13-8.55,2.27-12.67A68.34,68.34,0,0,1,75.12,58.72c15.74-12.55,33.74-17.3,53.63-14.86A65.36,65.36,0,0,1,157,54.23c18.51,12.18,29.41,29.22,32.05,51.28a67.25,67.25,0,0,1-8.31,42.23c-10.67,18.75-26.66,30.39-47.78,34.87C129.86,183.26,126.7,183.52,123.58,184ZM82.29,161a58,58,0,0,0,12.59,7.62,59.54,59.54,0,0,0,22.47,5,60.87,60.87,0,0,0,24.42-4.32,1,1,0,0,0,.71-1.35c-.34-1.56-.61-3.14-.93-4.71a248.18,248.18,0,0,0-11-37.76l-.9-2.45c-4.33,2-8.56,3.88-12.65,6-7.87,4.07-15.39,8.66-21.82,14.86C90.05,148.88,85.36,154.22,82.29,161Zm-7.78-7.43c11.85-20,29.63-32.43,51.08-40.45-.73-1.6-1.47-3.26-2.26-4.9s-1.65-3.34-2.51-5.07c-20.16,6-40.71,8.47-61.53,8.55C57.42,123.47,65.47,145.52,74.51,153.55ZM93.45,59.22c-17.54,8.93-28.54,22.81-33.14,42a218.53,218.53,0,0,0,55.53-7.34A316.81,316.81,0,0,0,93.45,59.22Zm34.05,31c12.11-4.94,23.22-11.09,31.35-21.62-16.91-15.55-39.73-17.36-53.74-13.17A266.61,266.61,0,0,1,127.5,90.24Zm51.69,22.61c.07-14.67-5.95-28.8-13.63-37.25-8.92,11-20.59,18.06-33.39,23.58,1.69,3.83,3.31,7.56,5,11.24.14.3.89.48,1.33.44a137.81,137.81,0,0,1,32.6.75C173.78,112,176.44,112.42,179.19,112.85ZM152.78,163.5c14.2-10.09,22.76-23.4,25.79-40.36a87,87,0,0,0-37.51-2.64A260.08,260.08,0,0,1,152.78,163.5Z"/></svg>