<svg id="Layer_1" data-name="Layer 1" xmlns="http://www.w3.org/2000/svg" viewBox="0 0 238.09 226.36"><defs><style>.cls-1{fill:#fff;}</style></defs><path class="cls-1" d="M41.84,199.5c-1.82-1-2.39-2.51-2.39-4.58q.07-46.44,0-92.87a5.65,5.65,0,0,1,1.75-4.33q14.53-14.43,28.95-29A5.58,5.58,0,0,1,74.49,67c6.8.07,13.6,0,20.4.05a3.57,3.57,0,0,0,2.79-1.14q18.48-18.57,37-37.08c2.61-2.61,4-2.61,6.63,0l24,24c2.35,2.36,2.36,4,0,6.3-2.53,2.54-5.07,5.06-8,7.93,2.47,0,4.51.06,6.54,0a4.74,4.74,0,0,1,3.74,1.55c9.8,9.82,19.65,19.6,29.4,29.47a5.63,5.63,0,0,1,1.47,3.54c.12,10.9.07,21.8.07,32.69,0,2.55-1.35,4.16-3.41,4.13s-3.33-1.62-3.33-4.21q0-14,0-28V104.3H46.35v88.35H191.86v-1.83q0-14.16,0-28.32c0-2.16,1.06-3.55,2.81-3.8,2.26-.34,3.91,1.18,3.92,3.69,0,5,0,10,0,15,0,5.84-.07,11.68,0,17.52,0,2.08-.58,3.59-2.4,4.59ZM89.94,73.76c-5,0-9.77,0-14.54,0a2.54,2.54,0,0,0-1.53.83Q63,85.45,52.18,96.31c-.28.28-.49.63-.8,1H186.72a4.33,4.33,0,0,0-.36-.55q-11.21-11.19-22.44-22.36a2.77,2.77,0,0,0-1.78-.62c-3-.07-6,.08-8.93-.08a5.08,5.08,0,0,0-4.38,1.82c-2,2.21-4.23,4.25-6.71,6.7,2.74,0,4.91,0,7.09,0,1.46,0,2.93-.07,4.38,0a3.34,3.34,0,0,1-.17,6.68c-.4,0-.79,0-1.18,0H85.84a12.8,12.8,0,0,1-1.52,0,3.35,3.35,0,0,1-3-3,3.27,3.27,0,0,1,2.18-3.42,7.86,7.86,0,0,1,2.32-.29c3,0,6,0,9,0l.18-.39c-1.19-1.15-2.35-2.35-3.59-3.45S89.32,75.8,89.94,73.76ZM158.76,56.1,138.17,35.53l-40,40c1.92,1.9,4,4,6.09,6a2.58,2.58,0,0,0,1.61.64q12.9.06,25.79,0a2.55,2.55,0,0,0,1.62-.6Q146,68.88,158.76,56.1Z"/><path class="cls-1" d="M195.15,145.18a3.31,3.31,0,0,1,3.44,3.2,3.36,3.36,0,1,1-6.72.15A3.31,3.31,0,0,1,195.15,145.18Z"/><path class="cls-1" d="M74,114.92c3.11,0,5.82.34,8.3,2.18a11.06,11.06,0,0,1,4.29,9,10.65,10.65,0,0,1-4.49,9c-2.61,1.84-5,2.14-8.17,2.14H68.12V114.92ZM72.48,133.5h1.33A9.3,9.3,0,0,0,79.27,132a7.25,7.25,0,0,0,2.78-5.93,7.46,7.46,0,0,0-2.74-6,9.17,9.17,0,0,0-5.5-1.47H72.48Z"/><path class="cls-1" d="M90,122.76H94v2.17a4.87,4.87,0,0,1,1.8-2,4.47,4.47,0,0,1,2.41-.63,5.24,5.24,0,0,1,1.75.33l-.54,3.82a3.07,3.07,0,0,0-1.91-.54,3.32,3.32,0,0,0-2.71,1.18,5,5,0,0,0-.8,3.21v7H90Z"/><path class="cls-1" d="M115.09,124.33a7.8,7.8,0,0,1,0,11.35,9.42,9.42,0,0,1-11.71,0,7.8,7.8,0,0,1,0-11.35,9.42,9.42,0,0,1,11.71,0ZM113.32,130a4.09,4.09,0,1,0-4.08,4.09A4,4,0,0,0,113.32,130Z"/><path class="cls-1" d="M124.77,144.92h-4.09V122.76h4.09v1.87a5.53,5.53,0,0,1,4.72-2.34,6.92,6.92,0,0,1,4.95,1.94,8.68,8.68,0,0,1-.1,11.62,7.11,7.11,0,0,1-4.92,1.87,5.51,5.51,0,0,1-4.65-2.34Zm1-18a3.87,3.87,0,0,0-1.37,3.12,4.07,4.07,0,0,0,1.34,3.14,3.94,3.94,0,0,0,2.68,1,3.88,3.88,0,0,0,2.74-1A4.26,4.26,0,0,0,132.4,130a4.35,4.35,0,0,0-1.24-3.05,4.23,4.23,0,0,0-2.77-1A3.7,3.7,0,0,0,125.74,126.87Z"/><path class="cls-1" d="M158.68,122.76h4.09v14.49h-4.09v-1.87a5.18,5.18,0,0,1-4.45,2.34c-4.45,0-7.4-3.48-7.4-7.73s2.92-7.7,7.2-7.7a5.24,5.24,0,0,1,4.65,2.34ZM151.05,130a4,4,0,1,0,4-4.09A4,4,0,0,0,151.05,130Z"/><path class="cls-1" d="M87,164.87h4.39v2a5.74,5.74,0,0,1,4.83-2.52,6,6,0,0,1,4.6,1.91,6.57,6.57,0,0,1,1.23,4.39v9.79h-4.4V172a4.46,4.46,0,0,0-.82-3.06,2.82,2.82,0,0,0-2.06-.79,3,3,0,0,0-2.69,1.36,5.38,5.38,0,0,0-.69,3v7.95H87Z"/><path class="cls-1" d="M120.7,166.56a8.39,8.39,0,0,1,0,12.2,10.12,10.12,0,0,1-12.6,0,8.39,8.39,0,0,1,0-12.2,10.12,10.12,0,0,1,12.6,0Zm-1.91,6.12a4.39,4.39,0,1,0-4.39,4.39A4.35,4.35,0,0,0,118.79,172.68Z"/><path class="cls-1" d="M131.1,168.61v11.84h-4.39V168.61H125v-3.74h1.73v-5.33h4.39v5.33h3v3.74Z"/><path class="cls-1" d="M151.73,176.1c-.47,1.15-2.23,4.86-7.67,4.86a8.13,8.13,0,0,1-6-2.2,7.84,7.84,0,0,1-2.45-6.08,8.27,8.27,0,0,1,2.38-6.12,8,8,0,0,1,5.86-2.2,7.45,7.45,0,0,1,6.09,2.56,9.35,9.35,0,0,1,1.87,6.12v.36H140.18a4.6,4.6,0,0,0,.75,2.62,3.71,3.71,0,0,0,3.13,1.48,4,4,0,0,0,3.64-2.05Zm-4-5.51a3.74,3.74,0,0,0-7.38,0Z"/></svg>