<svg id="Layer_1" data-name="Layer 1" xmlns="http://www.w3.org/2000/svg" viewBox="0 0 238.09 226.36"><defs><style>.cls-1{fill:#2f4858;}.cls-2{fill:#7a8c86;}</style></defs><path class="cls-1" d="M207.83,194c-1.49,2.07-3.16,2.73-4.52,1.44a4.77,4.77,0,0,1-1.29-3.12c-.1-9.53-.06-19.07-.06-28.6v-1.95H185.13c0,.63-.08,1.23-.08,1.84,0,9.47,0,18.95,0,28.43a5.93,5.93,0,0,1-.37,2.34,2.62,2.62,0,0,1-2.95,1.6,2.75,2.75,0,0,1-2.49-2.47,10,10,0,0,1-.05-1.55V152.71c0-.4,0-.8,0-1.2a2.91,2.91,0,0,1,5.82-.1c.1,1.37,0,2.75,0,4.42h1.89c5.63,0,11.25,0,16.88,0a4.15,4.15,0,0,1,4,2Z"/><path class="cls-1" d="M207.83,143.7c-1.4,1.86-2.51,2.36-4,1.75a3.12,3.12,0,0,1-1.9-3.16c-.15-3.71,0-7.51-.69-11.12-1.2-6-5-10.31-10.55-13-2.59-1.26-3.43-2.61-2.63-4.39s2.56-2.2,5.15-.92a25.08,25.08,0,0,1,14.29,19c.07.38.21.75.32,1.13Z"/><path class="cls-2" d="M54.08,155.69c0-1.37,0-2.63,0-3.89A3,3,0,0,1,57,148.63a2.93,2.93,0,0,1,2.91,3.17q0,20.52,0,41a2.94,2.94,0,0,1-2.84,3.24c-1.76,0-3-1.33-3-3.45q0-14.31,0-28.61v-2.3h-19c-2.85,0-3.73-1-3.71-3.89,0-7.12,0-14.25,0-21.37.05-13.14,8.76-23.5,21.68-25.66a43.59,43.59,0,0,1,7-.28,1.52,1.52,0,0,0,1.73-1.23c.4-1.44,1-2.82,1.34-4.27a1.91,1.91,0,0,0-.59-1.62c-7.81-5.48-11.52-13-11.47-22.48,0-10.28,0-20.57,0-30.85,0-9.52,5.64-16.82,14.48-18.9a23.12,23.12,0,0,1,5.12-.53c12.76,0,25.51,0,38.27,0,3.09,0,4.07.93,4,4-.09,4.87.43,9.76-1,14.56A25.81,25.81,0,0,1,87.49,67.82c-9.48,0-19,0-28.44,0H56.92c.68,7.23-1.16,14.43,1.47,21.32a19.37,19.37,0,0,0,21.73,12.17,19.75,19.75,0,0,0,16-18.61c.06-2,0-4,0-6,0-2.19,1.18-3.45,3-3.42s2.9,1.24,2.84,3.37a72.25,72.25,0,0,1-.6,10.63,24,24,0,0,1-9.37,15,1.65,1.65,0,0,0-.69,2.14c.8,2.46,1.55,4.93,2.27,7.41.6,2.07-.14,3.68-1.84,4.2s-3.16-.46-3.81-2.54c-.77-2.45-1.5-4.92-2.2-7.23a73.43,73.43,0,0,1-8.41,1.21,72.94,72.94,0,0,1-8.51-.67c-.59,1.74-1.34,3.82-2,5.93-.1.38.26,1,.54,1.37A11.57,11.57,0,0,0,76,119.26l.51,0c2.3.27,3.57,1.52,3.36,3.31s-1.62,2.75-4,2.56a17.19,17.19,0,0,1-13-7.44,3.09,3.09,0,0,0-2.82-1.4c-4.85-.13-9.53.33-13.71,3.11-5.23,3.49-8.56,8.31-8.86,14.61-.34,7.15-.08,14.33-.08,21.63ZM107,36.55c-12.84,0-25.59-.19-38.32.09A12.08,12.08,0,0,0,57.32,46.71,31.36,31.36,0,0,0,57,52.37c0,3.14,0,6.28,0,9.44a7,7,0,0,0,.87.13c10.11,0,20.22.13,30.32-.06a18.75,18.75,0,0,0,13.67-6.37C106.9,50.15,107.65,43.62,107,36.55Z"/><path class="cls-1" d="M133.33,166.26c.88,2.79,1.73,5.41,2.53,8,.58,1.92-.19,3.47-1.91,4s-3-.35-3.68-2.22c-.8-2.38-1.54-4.78-2.37-7.35a28.69,28.69,0,0,1-16.62,0c-.72,2.17-1.42,4.16-2,6.19a2,2,0,0,0,.39,1.41,11.38,11.38,0,0,0,8,5.36c.46.08.91.11,1.37.18,2.08.29,3.14,1.47,3,3.26s-1.57,2.76-3.61,2.59A17.17,17.17,0,0,1,105,179.81a2.55,2.55,0,0,0-2.63-1.37c-2.28.17-4.64-.08-6.85.39a11.46,11.46,0,0,0-9,11.17c0,1.14,0,2.3-.06,3.44a2.91,2.91,0,0,1-5.78.11c-1.2-11.83,6.09-19.38,15-20.78a40.53,40.53,0,0,1,6.71-.17c1.07,0,1.69-.22,2-1.36.42-1.66,1-3.27,1.53-4.87C92.2,157.71,90.26,143,94.07,133.2a27.38,27.38,0,0,1,32-16.93V114.1c0-15.51-.06-31,0-46.54a36.51,36.51,0,0,1,29.77-36.12C176,27.37,196.3,41.88,198.9,62.3a45.13,45.13,0,0,1,.36,5.32q0,14.56,0,29.13a9.05,9.05,0,0,1-.05,1.38,2.73,2.73,0,0,1-2.55,2.41,2.63,2.63,0,0,1-3-1.82,6.4,6.4,0,0,1-.28-2.19c0-9.54,0-19.08,0-28.62C193.34,52,182.72,39.58,167,37c-16.1-2.64-32.43,9.37-34.66,25.53a36.93,36.93,0,0,0-.38,5.14c0,16.43,0,32.87,0,49.3a2.27,2.27,0,0,0,1.31,2.29,27.16,27.16,0,0,1,1.47,46.08Zm-13.79-2.21a21.33,21.33,0,1,0-21.33-21.24A21.4,21.4,0,0,0,119.54,164.05Z"/><path class="cls-1" d="M171,105.81a26.22,26.22,0,0,1-16.76.49c-.7,2.11-1.4,4-1.94,6a2.37,2.37,0,0,0,.44,1.69,11.7,11.7,0,0,0,8.88,5.23,8.56,8.56,0,0,1,1,.1,2.89,2.89,0,0,1,2.45,3.22,2.74,2.74,0,0,1-2.92,2.56c-5.81-.06-10.32-2.69-13.88-7.15-2-2.55-3-5.19-1.41-8.41a43.59,43.59,0,0,0,1.91-5.62l-1.22-.91C140.44,97.9,136.64,91,136.42,82.15c-.09-3.79,0-7.58,0-11.37,0-2.24,1-3.32,3.25-3.31a120.43,120.43,0,0,0,37.42-5.9c4.74-1.52,9.71,1.39,10.09,6.28.51,6.62.9,13.34-.49,19.91A23.86,23.86,0,0,1,177.6,102a2,2,0,0,0-.81,2.72c.81,2.39,1.5,4.82,2.19,7.24.55,1.93-.22,3.46-1.94,4s-3.07-.39-3.66-2.25C172.57,111.11,171.82,108.53,171,105.81ZM142.62,73.35c0,4.14-.48,8.15.09,12,1.41,9.53,10.17,16.5,19.75,16.22A19.43,19.43,0,0,0,181.29,84.1c.42-4.67.21-9.4.24-14.11,0-2.6-1-3.28-3.48-2.59-3.92,1.09-7.83,2.25-11.79,3.17A118.93,118.93,0,0,1,142.62,73.35Z"/><path class="cls-1" d="M37.26,182.44c0,3.39,0,6.77,0,10.15,0,2.18-1.16,3.5-2.94,3.48s-2.92-1.36-2.93-3.53q0-10,0-20.12c0-2.18,1.13-3.51,2.89-3.55s3,1.27,3,3.6C37.27,175.8,37.26,179.12,37.26,182.44Z"/><path class="cls-1" d="M158.53,190.93c0,.75,0,1.5,0,2.24a2.92,2.92,0,0,1-5.84,0,48.11,48.11,0,0,0-.2-4.81,11.47,11.47,0,0,0-6-8.53c-1.92-1.09-2.37-3.15-1.12-4.63,1-1.16,2.43-1.37,4-.45C155.61,178.31,158.53,183.8,158.53,190.93Z"/></svg>