<svg id="Layer_1" data-name="Layer 1" xmlns="http://www.w3.org/2000/svg" viewBox="0 0 238.09 226.36"><defs><style>.cls-1{fill:#2f4858;}.cls-2{fill:#7a8c86;}</style></defs><path class="cls-1" d="M219.92,183.8a6,6,0,0,0-.36.83c-2.49,9-12.43,12.3-19.79,6.58-7.53-5.86-15-11.81-22.49-17.72-.53-.42-1.08-.83-1.93-1.47,0,.83-.11,1.4-.11,2,0,4.31,0,8.63,0,12.94-.08,8.18-5.36,13.5-13.5,13.5q-60,0-119.92,0c-8.12,0-13.48-5.39-13.49-13.51q0-37.49,0-75c0-8.47,5.29-13.79,13.76-13.87.86,0,1.73,0,3.07,0-12.83-9.89-18.66-22.49-16.3-38.27C30.47,49,36.11,40.49,45.07,34.3c19.13-13.2,46.89-6.22,56.69,16,8.39-15.81,21.34-24.18,39.38-22.27,16.09,1.71,27.33,10.92,32.13,26.42,5.43,17.51-.33,31.95-14.79,43.57,1.2,0,2.09,0,3,0,8.5.07,13.74,5.34,13.78,13.85,0,4.74,0,9.49,0,14.69.8-.59,1.31-1,1.81-1.35,7.45-5.87,15-11.59,22.3-17.65,7.51-6.25,18.54-2.28,20.31,6.72a1.78,1.78,0,0,0,.27.48ZM101.84,194h59.32c5.36,0,7.66-2.27,7.67-7.6V112.18c0-5.32-2.35-7.71-7.62-7.71H42.39c-5.28,0-7.69,2.41-7.69,7.65v74.25c0,5.32,2.33,7.65,7.63,7.65Zm-35.19-96A32,32,0,1,0,34.7,66.13,32,32,0,0,0,66.65,98.05ZM168.81,66.12a31.91,31.91,0,1,0-31.89,31.93A31.87,31.87,0,0,0,168.81,66.12Zm44.73,83.28c0-10.5,0-21,0-31.48,0-2.79-.75-5.11-3.36-6.38s-4.89-.5-7.08,1.24q-13.25,10.55-26.59,21a3,3,0,0,0-1.32,2.65q.07,12.84,0,25.67a3,3,0,0,0,1.28,2.68q13.33,10.43,26.58,21c2.19,1.73,4.48,2.55,7.08,1.3s3.43-3.55,3.41-6.35C213.51,170.26,213.54,159.83,213.54,149.4ZM101.79,82.1a98.36,98.36,0,0,1-5.72,8.4c-2.23,2.68-4.94,5-7.37,7.36h26.14c-2.49-2.46-5.18-4.73-7.39-7.39A96.3,96.3,0,0,1,101.79,82.1Z"/><path class="cls-2" d="M82.68,114.07h27.68c6.67,0,10.56,3.88,10.58,10.59q0,15,0,30c0,6.8-3.89,10.66-10.71,10.67-18.39,0-36.77-.08-55.16,0-6.89.05-11-4.87-10.81-10.85.26-10,.07-20,.08-30,0-6.57,3.9-10.45,10.48-10.46Zm0,6.39H54.76c-2.95,0-4,1.12-4,4.1q0,15.09,0,30.18c0,3.09,1,4.14,4.18,4.14q27.69,0,55.38,0c3.24,0,4.25-1,4.26-4.28q0-14.91,0-29.81c0-3.34-1-4.34-4.39-4.34Z"/><path class="cls-1" d="M136.87,178a9.56,9.56,0,0,1-19.12.05,9.56,9.56,0,1,1,19.12-.05Zm-9.46-3.17a3.28,3.28,0,0,0-3.28,3.15,3.16,3.16,0,0,0,3,3.19,3.12,3.12,0,0,0,3.34-3A3.21,3.21,0,0,0,127.41,174.87Z"/><path class="cls-1" d="M152.76,187.62a9.58,9.58,0,1,1,9.65-9.55A9.48,9.48,0,0,1,152.76,187.62Zm.15-12.75a3.27,3.27,0,0,0-3.24,3.19,3.21,3.21,0,0,0,3.05,3.16,3.07,3.07,0,0,0,3.28-3.06A3.16,3.16,0,0,0,152.91,174.87Z"/></svg>