<svg id="Layer_1" data-name="Layer 1" xmlns="http://www.w3.org/2000/svg" viewBox="0 0 238.09 226.36"><defs><style>.cls-1{fill:#2f4858;}</style></defs><path class="cls-1" d="M189.53,79.29q0,34.08,0,68.15a40.53,40.53,0,0,1-.53,7c-2.36,13-9.75,22.08-22,27-3.13,1.28-6.61,1.69-9.93,2.5H81.25c-1-.17-2-.33-3-.52-12.92-2.44-22-9.76-26.94-21.87-1.29-3.16-1.71-6.68-2.54-10V75.66a77.23,77.23,0,0,1,1.71-7.88,35.1,35.1,0,0,1,33.7-24.53q35-.11,69.93,0a34,34,0,0,1,20.57,6.59C184.63,57.12,189.52,67,189.53,79.29Zm-11.74-.05a23,23,0,0,0-2.12-10.53C171.14,59.6,163.74,55,153.56,55q-34.35,0-68.7,0a32.84,32.84,0,0,0-4.65.33C69.56,56.81,60.73,66.46,60.66,77.25c-.15,24-.06,47.91-.07,71.87a20.86,20.86,0,0,0,2.07,9.3c4.5,9.12,11.89,13.76,22.07,13.78q34.42,0,68.84,0a34.5,34.5,0,0,0,4.65-.33c10.44-1.43,19.33-11.18,19.47-21.72.17-12.18,0-24.37,0-36.55h.05C177.78,102.14,177.76,90.69,177.79,79.24Z"/><path class="cls-1" d="M166.09,75.44a8.78,8.78,0,1,1-8.76-8.75A8.8,8.8,0,0,1,166.09,75.44Z"/><path class="cls-1" d="M119.26,78.42A35.18,35.18,0,1,1,84,113.57,35.25,35.25,0,0,1,119.26,78.42Zm-.17,58.6a23.43,23.43,0,1,0-23.34-23.48A23.4,23.4,0,0,0,119.09,137Z"/></svg>