<svg id="Layer_1" data-name="Layer 1" xmlns="http://www.w3.org/2000/svg" viewBox="0 0 238.09 226.36"><defs><style>.cls-1{fill:#2f4858;}.cls-2{fill:#7a8c86;}</style></defs><path class="cls-1" d="M23.92,139.08c.88-1.32,2-2.32,3.69-1.75s2,2,2,3.6q0,25.88,0,51.74v2.42l11-2.73c14.36-3.57,28.73-7.15,43.11-10.65,1.48-.36,2-.91,2-2.47-.06-19.23,0-38.46,0-57.69,0-.68,0-1.37,0-2a2.79,2.79,0,0,1,5.56-.26,10.66,10.66,0,0,1,.07,2q0,29,0,57.88c0,1.59.42,2.21,2,2.56,5.38,1.2,10.71,2.61,16.06,3.94.42.1.84.2,1.25.34a2.83,2.83,0,1,1-1.51,5.45c-4-1-8.15-1.72-12.07-3-5.73-2-11.18-1.63-17-.08-17.05,4.52-34.24,8.58-51.35,12.89-2,.5-3.5.21-4.71-1.43Z"/><path class="cls-1" d="M23.92,66.09a16.72,16.72,0,0,1,3.39-1.94c3.63-1.05,7.31-1.93,11-2.8,2.43-.58,4.19.8,3.93,3a2.82,2.82,0,0,1-2.42,2.47c-2.83.72-5.63,1.53-8.48,2.08-1.51.29-1.8,1-1.8,2.37q.07,29,0,57.89c0,.68.19,1.51-.12,2a5.31,5.31,0,0,1-2.11,2.07c-1.52.63-2.47-.61-3.4-1.6Z"/><path class="cls-1" d="M152.89,195.09l56-13.88V55.52c-2.93.7-5.74,1.36-8.54,2.06-15.22,3.77-30.42,7.59-45.64,11.3-1.46.36-1.84.94-1.83,2.36.06,9.56,0,19.12,0,28.67a14,14,0,0,1-.09,2,2.31,2.31,0,0,1-2.5,2.24,4.84,4.84,0,0,1-2.74-1.73c-.43-.5-.32-1.53-.32-2.33,0-9.61-.06-19.23,0-28.85a2.09,2.09,0,0,0-1.93-2.48c-12.71-3.09-25.39-6.25-38.08-9.39-.48-.12-1-.22-1.44-.38a2.81,2.81,0,1,1,1.5-5.41c5.48,1.32,11,2.68,16.42,4,8.36,2.07,16.71,4.17,25.08,6.18a6.78,6.78,0,0,0,3.07-.09q28.7-7.07,57.36-14.21c.61-.15,1.2-.34,1.81-.45a2.82,2.82,0,0,1,3.5,2.65c.05.55,0,1.12,0,1.67V181.88c0,3.34-.34,3.83-3.54,4.62q-29.49,7.35-59,14.62a8.31,8.31,0,0,1-3.81,0c-9.34-2.24-18.65-4.6-28-6.91l-.36-.08c-2.76-.68-3.79-1.84-3.33-3.75s1.94-2.43,4.7-1.75l24.54,6.06c.4.09.82.14,1.4.25V192.8q0-14.9,0-29.79a7.7,7.7,0,0,1,.23-2.2,2.55,2.55,0,0,1,2.84-1.9,2.58,2.58,0,0,1,2.51,2.34,15.4,15.4,0,0,1,.08,2v31.8Z"/><path class="cls-2" d="M66.2,47.88c-4.69-7.06-4.4-14,.71-18.85A13.43,13.43,0,0,1,84.3,27.91a13.22,13.22,0,0,1,5.39,9.6,13.86,13.86,0,0,1-3.38,10.32,35.66,35.66,0,0,1,24,42.41c-4.08,16-18.57,26.9-35.56,26.5-15.68-.37-29.9-12.56-33-28.12C38.5,71.79,47.7,54,66.2,47.88ZM46.83,81.75A29.45,29.45,0,1,0,76,52.25,29.5,29.5,0,0,0,46.83,81.75ZM76.31,30.93a7.81,7.81,0,0,0-.09,15.61,7.81,7.81,0,1,0,.09-15.61Z"/><path class="cls-1" d="M143.37,129c-.13-10.06,4.51-17.7,12.83-21.17,9.06-3.76,19.46-1.92,25.91,4.62a21.12,21.12,0,0,1,6,14.62,46.23,46.23,0,0,1-5.28,23.31c-1.07,2.06-2.57,2.71-4.18,1.86s-1.91-2.45-.83-4.5a40,40,0,0,0,4.65-19.89c-.18-6.46-2.71-11.84-8.85-14.59-6.42-2.88-12.86-2.53-18.66,1.77a14.5,14.5,0,0,0-5.85,11.41c-.62,13.94,4.56,25.38,15.31,34.32,1,.85,1.72.92,2.67,0,1.41-1.39,2.92-2.69,4.36-4s3-1.55,4.27-.36a2.75,2.75,0,0,1-.23,4.25c-2.45,2.27-5,4.39-7.59,6.55-1.45,1.23-2.86,1-4.39,0A46.35,46.35,0,0,1,143.37,129Z"/><path class="cls-1" d="M179.29,129.06a13.58,13.58,0,1,1-13.58-13.56A13.55,13.55,0,0,1,179.29,129.06Zm-13.47-7.9a7.89,7.89,0,1,0,7.82,8A7.82,7.82,0,0,0,165.82,121.16Z"/><path class="cls-1" d="M191.67,91.46c0,2.58,0,5.17,0,7.75,0,.87,0,1.74,0,2.6a2.82,2.82,0,1,1-5.63-.07c-.08-2.17,0-4.35,0-6.52V91l-4,4c-.58.57-1.12,1.16-1.73,1.69a2.84,2.84,0,0,1-4,0,2.78,2.78,0,0,1,.1-4c1.93-2,3.94-4,5.91-5.94,1.45-1.44,2.88-2.91,4.35-4.33s3-1.52,4.42-.12q5.19,5.07,10.26,10.26c1.35,1.37,1.36,3,.2,4.13s-2.86,1.15-4.28-.23c-1.73-1.67-3.38-3.41-5.07-5.12Z"/><path class="cls-1" d="M129.3,117.9c0,3.21,0,6.43,0,9.65,0,2.27-1.09,3.61-2.86,3.59s-2.76-1.32-2.76-3.66c0-3.19,0-6.39,0-9.58l-.61-.42c-1.26,1.42-2.5,2.85-3.77,4.25a14.06,14.06,0,0,1-1.46,1.43,2.84,2.84,0,0,1-3.88,0,2.67,2.67,0,0,1-.08-4q5.25-5.38,10.66-10.64a2.62,2.62,0,0,1,4,.05q5.33,5.22,10.52,10.53a2.79,2.79,0,1,1-4,3.92c-1.8-1.78-3.5-3.65-5.24-5.48Z"/><path class="cls-1" d="M188.89,75.73l-7.41,7.47a16.33,16.33,0,0,1-1.34,1.29,2.85,2.85,0,0,1-3.88,0,2.71,2.71,0,0,1-.1-3.86q5.33-5.47,10.79-10.8a2.6,2.6,0,0,1,3.86,0q5.4,5.27,10.66,10.67a2.68,2.68,0,0,1-.1,4,2.8,2.8,0,0,1-4-.18C194.57,81.57,191.87,78.76,188.89,75.73Z"/><path class="cls-1" d="M126.85,101.91l-7.7,7.72c-.44.44-.86.9-1.33,1.3a2.81,2.81,0,0,1-4-.1,2.66,2.66,0,0,1,0-3.85q5.25-5.39,10.64-10.64a2.6,2.6,0,0,1,4,0q5.31,5.19,10.51,10.51a2.81,2.81,0,1,1-4,3.91q-3.53-3.43-6.95-7A10.47,10.47,0,0,1,126.85,101.91Z"/><path class="cls-1" d="M171,179.09c0,2.48-1.67,4-3.42,3.45-3.81-1.21-7.58-2.6-11.27-4.14a2.6,2.6,0,0,1-1.2-3.78,2.88,2.88,0,0,1,3.69-1.23c3.35,1.24,6.75,2.37,10,3.75C169.8,177.55,170.5,178.65,171,179.09Z"/><path class="cls-1" d="M84.22,135.38A7.81,7.81,0,0,1,82,137.24c-3.34,1.3-6.77,2.37-10.16,3.52a2.78,2.78,0,0,1-3.73-1.48,2.63,2.63,0,0,1,1.52-3.67c3.7-1.38,7.45-2.65,11.24-3.77C82.66,131.32,84.28,132.84,84.22,135.38Z"/><path class="cls-1" d="M44.73,162c-2.54.08-4.2-2.46-2.81-4.14a124.9,124.9,0,0,1,8.61-9.22c1-1,2.49-.72,3.52.35a2.54,2.54,0,0,1,.16,3.7c-2.6,2.91-5.29,5.74-8,8.54A4.35,4.35,0,0,1,44.73,162Z"/><path class="cls-1" d="M104,132.69a6.81,6.81,0,0,1,1.24.33c3.3,1.4,6.62,2.76,9.87,4.27,1.84.85,2.36,2.45,1.58,4s-2.31,1.89-4.15,1.08c-3.17-1.39-6.36-2.74-9.54-4.1a2.76,2.76,0,0,1-1.93-3.2C101.31,133.57,102.29,132.79,104,132.69Z"/><path class="cls-1" d="M132,150.22a11.32,11.32,0,0,1,2.36,1.26q4,3.87,7.87,7.89a2.78,2.78,0,0,1,.07,4,2.82,2.82,0,0,1-4.14-.13c-2.61-2.55-5.25-5.08-7.67-7.8a4,4,0,0,1-.65-3.17C130.05,151.49,131.23,150.93,132,150.22Z"/><path class="cls-2" d="M86.59,81.59c-.17.61-.3,1.22-.51,1.79-2.27,6.16-4.57,12.3-6.84,18.46-.52,1.42-1.21,2.62-2.95,2.63s-2.44-1.14-3-2.59C71.05,95.73,68.7,89.6,66.5,83.42a5.39,5.39,0,0,1,0-3.37c2.21-6.24,4.59-12.42,6.87-18.64.54-1.47,1.3-2.58,3-2.56s2.34,1.1,2.85,2.5c2.28,6.22,4.61,12.42,6.91,18.63C86.29,80.49,86.42,81,86.59,81.59ZM76.27,69.82c-1.51,4-2.88,7.67-4.22,11.33a1.74,1.74,0,0,0,0,1.08c1.33,3.64,2.7,7.28,4.2,11.28,1.49-4,2.86-7.65,4.19-11.3a1.7,1.7,0,0,0,0-1.09C79.13,77.47,77.76,73.83,76.27,69.82Z"/><path class="cls-1" d="M76.22,84.44a2.8,2.8,0,0,1-2.77-2.86,2.8,2.8,0,0,1,5.59.07A2.73,2.73,0,0,1,76.22,84.44Z"/></svg>