<svg id="Layer_1" data-name="Layer 1" xmlns="http://www.w3.org/2000/svg" viewBox="0 0 238.09 226.36"><defs><style>.cls-1{fill:#7a8c86;}.cls-2{fill:#2f4858;}</style></defs><path class="cls-1" d="M87.5,33c2,1.13,2.54,2.86,2.54,5.1Q90,113.38,90,188.66a9.24,9.24,0,0,1-.3,2.63,3.58,3.58,0,0,1-6.89-.55,12.18,12.18,0,0,1-.18-2.18q0-75.21,0-150.42c0-2.26.49-4.12,2.7-5.15Z"/><path class="cls-2" d="M38.86,94.19A4.18,4.18,0,0,1,42,91.46a3.66,3.66,0,0,1,4,2.75,9,9,0,0,1,.16,1.87q0,17.25,0,34.51c0,1.91-.38,3.57-2.33,4.37s-3.62,0-5-2.48Z"/><path class="cls-1" d="M104.52,113.17V45.23c0-2.84.84-4.23,2.85-4.76a3.52,3.52,0,0,1,4.26,2.23,7.81,7.81,0,0,1,.31,2.31q0,68.34,0,136.66c0,2.61-.85,4-2.76,4.52a3.47,3.47,0,0,1-4.42-2.6,11.4,11.4,0,0,1-.24-2.48Q104.51,147.15,104.52,113.17Z"/><path class="cls-2" d="M148.39,113.27q0-34.2,0-68.41c0-2.59.87-3.91,2.86-4.41a3.53,3.53,0,0,1,4.31,2.61,11.34,11.34,0,0,1,.2,2.33q0,67.94,0,135.87a8.68,8.68,0,0,1-.73,3.45,3,3,0,0,1-3.28,1.63,3.32,3.32,0,0,1-3-2.35,8.53,8.53,0,0,1-.29-2.47Q148.38,147.4,148.39,113.27Z"/><path class="cls-2" d="M68.07,113.32v46.26c0,3.17-1.24,4.85-3.59,4.89s-3.71-1.7-3.71-4.94q0-46.17,0-92.36c0-3.26,1.28-5,3.67-5s3.63,1.72,3.63,5Z"/><path class="cls-2" d="M126.45,113.17v-39c0-2.61,1-4,3-4.47a3.48,3.48,0,0,1,4.17,2.57,9.26,9.26,0,0,1,.25,2.17q0,39,0,77.93c0,1.54-.15,3-1.53,4.06a3.54,3.54,0,0,1-5.62-1.85,8.66,8.66,0,0,1-.27-2.32Q126.43,132.68,126.45,113.17Z"/><path class="cls-2" d="M170.33,113.34V74c0-2.55.93-3.87,3-4.32a3.57,3.57,0,0,1,4.23,2.75,10.62,10.62,0,0,1,.11,1.87q0,39.08,0,78.14c0,2.77-.84,4.11-2.82,4.59a3.54,3.54,0,0,1-4.43-3,14.76,14.76,0,0,1-.06-1.88Z"/><path class="cls-2" d="M199.54,113.33c0,6,0,12,0,18a3.59,3.59,0,0,1-3,3.81,3.49,3.49,0,0,1-3.85-2,6.45,6.45,0,0,1-.42-2.43q0-17.4,0-34.8c0-3.4,2.14-5.23,4.88-4.27,1.6.56,2.43,1.87,2.43,4C199.55,101.52,199.54,107.43,199.54,113.33Z"/></svg>