<svg id="Layer_1" data-name="Layer 1" xmlns="http://www.w3.org/2000/svg" viewBox="0 0 238.09 226.36"><defs><style>.cls-1{fill:#2f4858;}</style></defs><path class="cls-1" d="M88.13,184a36.91,36.91,0,0,1-1-4.08c-1.07-7.7-1.86-15.46-.87-23.21a122.32,122.32,0,0,1,2.85-13.45c2.65-10.93,5.41-21.83,8.08-32.75a4.07,4.07,0,0,0-.17-2.21c-2.81-7.73-3.29-15.45.36-23,2.3-4.77,5.89-8.17,11.29-9.25,7.27-1.47,13.28,3.2,13.68,10.59A33.53,33.53,0,0,1,120.49,98c-1.71,5.71-3.48,11.41-5.23,17.11-3.17,10.35,5.15,17.29,14,16.67,9.72-.67,16.33-6,21.05-14.07,3.91-6.68,5.54-14,6-21.7a38.92,38.92,0,0,0-2.14-16.12A31.22,31.22,0,0,0,137,61.65C124.08,56,111,56.3,98.5,62.6,87.22,68.27,80.57,77.72,78.79,90.29a31.2,31.2,0,0,0,6.17,24,3.39,3.39,0,0,1,.63,3.1c-.78,2.93-1.52,5.86-2.32,8.79-.55,2-1.39,2.41-3.33,1.5a26.13,26.13,0,0,1-10.8-9.77,42.14,42.14,0,0,1-6.51-31.32c3.78-21.15,16.6-34.38,36.74-40.69a68.45,68.45,0,0,1,38-1.06c13.79,3.53,25,11,32.57,23.26a45.61,45.61,0,0,1,6.71,26.3,59.41,59.41,0,0,1-7.11,26.76c-6.61,11.91-16.25,20-29.67,23.22-7.24,1.71-14.48,1.75-21.46-1.41a19.17,19.17,0,0,1-8.43-6.64c-.1-.16-.15-.34-.52-.36-1.22,4.45-2.61,8.87-3.62,13.37-2.8,12.53-9,23.4-16.19,33.81-.21.3-.44.58-.65.87Z"/></svg>