<svg xmlns="http://www.w3.org/2000/svg" viewBox="0 0 238.09 226.36"><defs><style>.cls-1{isolation:isolate;}.cls-2{mix-blend-mode:multiply;}.cls-3{fill:#2f4858;}</style></defs><g class="cls-1"><g id="Layer_1" data-name="Layer 1"><g class="cls-2"><path class="cls-3" d="M96.17,195c-3.25-1.25-4.45-3.65-4.31-7.06.16-4,.08-7.91,0-11.86a2.38,2.38,0,0,0-1-1.66A6.87,6.87,0,0,1,87.5,169c-.66-6.93,2.25-10.16,8.9-9.71,1.52.1,3,0,4.71,0a49.53,49.53,0,0,0-.9-13.57c0-.2-.12-.4-.16-.61-.38-1.83.22-3,1.68-3.36s2.71.49,2.93,2.32c.52,4.43.87,8.88,1.27,13.32,0,.57,0,1.14,0,1.9h10a9.15,9.15,0,0,1,1.89.1,2.33,2.33,0,0,1-.33,4.62c-.47,0-.94,0-1.42,0H94.94c-2.21,0-2.7.49-2.72,2.68,0,.43,0,.85,0,1.27,0,1.9.48,2.37,2.34,2.37h50c1.89,0,2.34-.46,2.4-2.31,0-.53,0-1,0-1.58,0-1.87-.59-2.42-2.5-2.43H129.08c-2,0-3.09-.85-3.07-2.36s1.16-2.35,3.12-2.37c1.31,0,2.61,0,4.19,0,0-2.73-.14-5.3,0-7.86.68-10.27,4.82-19.2,10.87-27.34,1-1.39,2.16-2.72,3.32-4a1.6,1.6,0,0,0,.26-2.11q-12.19-22.4-24.37-44.81c-.19-.35-.62-.58-.94-.86-.18.39-.51.79-.51,1.18,0,11.23,0,22.46,0,33.68,0,1.14.68,1.23,1.43,1.48a11.73,11.73,0,0,1,7.93,12.3,11.77,11.77,0,0,1-23,2.09,11.73,11.73,0,0,1,7.34-14.29,2,2,0,0,0,1.64-2.3c0-10.75,0-21.5,0-32.25a2.6,2.6,0,0,0,0-.79,9.93,9.93,0,0,0-.6-1.11,3.73,3.73,0,0,0-.83.8q-12.19,22.4-24.37,44.81c-.55,1-.19,1.56.38,2.36,2.8,3.88,5.56,7.79,8.21,11.77,1.1,1.66.74,3.08-.61,3.8s-2.45.09-3.51-1.46c-2.63-3.86-5.29-7.72-8.08-11.47-1.8-2.41-2.08-4.4-.51-7.3q12.38-22.83,24.79-45.66a4.11,4.11,0,0,0,.58-2.94,7.05,7.05,0,1,1,13.87,0,3.92,3.92,0,0,0,.53,2.8q12.35,22.68,24.65,45.37c1.9,3.51,1.7,5.31-.88,8.3-6.29,7.26-10.92,15.38-12.34,25-.51,3.46-.47,7-.7,10.79,2.44,0,4.57,0,6.71,0a6.92,6.92,0,0,1,5.54,2.2c3.13,3.53,2.08,10.47-1.89,13a2.19,2.19,0,0,0-.84,1.59c-.07,4-.16,7.91,0,11.86.13,3.41-1.05,5.82-4.31,7.06Zm.47-9.88v3c0,2.13,0,2.14,2.1,2.14h41.73c.27,0,.6.1.78,0,.45-.3,1.13-.67,1.18-1.08a35.59,35.59,0,0,0,0-4c-2,0-3.87,0-5.7,0-2.08,0-3.25-.91-3.23-2.44s1.14-2.28,3.15-2.29h5.69v-5.14H96.79v5.14h13.08c2.11,0,4.22,0,6.33,0a2.14,2.14,0,0,1,2.27,2.15,2.2,2.2,0,0,1-2,2.47,8.18,8.18,0,0,1-1.57.09H96.64Zm15.93-65.43a7,7,0,1,0,7.11-6.91A6.94,6.94,0,0,0,112.57,119.65Zm9.33-53.89a2.34,2.34,0,1,0-2.4,2.37A2.36,2.36,0,0,0,121.9,65.76Z"/><path class="cls-3" d="M38.61,112.1c.9-1.69,1.53-3.63,2.78-5a12.47,12.47,0,0,1,4.55-3A2.39,2.39,0,0,0,47.71,102a69,69,0,0,1,7.22-21.61A72.15,72.15,0,0,1,91.21,46.87l1.16-.51c.09,0,.16-.11.46-.31a9.55,9.55,0,0,0-1.27-.17c-2.32,0-4.63,0-7,0-1.85,0-3-1-3-2.38s1.1-2.35,3-2.35h24.68c1.71-5,5-8.06,10.36-8s8.52,3.09,10.16,8h49.85c0-1.32,0-2.57,0-3.82a3.94,3.94,0,0,1,4.16-4.18c4.16,0,8.33,0,12.49,0a3.94,3.94,0,0,1,4.21,4.28q0,6.18,0,12.34a4,4,0,0,1-4.26,4.23q-6.16,0-12.33,0a4,4,0,0,1-4.27-4.24c0-1.2,0-2.4,0-3.69h-33l-.1.2c.37.19.73.39,1.12.56A71.48,71.48,0,0,1,168.5,60a3.6,3.6,0,0,1,1.26,2.19,3,3,0,0,1-1.26,2.09c-1,.68-2,.2-2.87-.52-2.67-2.15-5.26-4.42-8.07-6.35a65.9,65.9,0,0,0-26.77-10.67c-.69-.12-1.21-.24-1.61.67-1.87,4.22-5.18,6.51-9.79,6.43s-7.8-2.51-9.6-6.75a3.61,3.61,0,0,0-.22-.39c-26.66,3.18-53,26.15-57.34,57.21.32.16.67.36,1,.53A10.43,10.43,0,1,1,39.06,117c-.13-.38-.3-.75-.45-1.13Zm157.09-63V37.89H184.52v11.2Zm-70.44-5.54a5.69,5.69,0,1,0-5.8,5.61A5.71,5.71,0,0,0,125.26,43.55ZM54.73,113.94a5.69,5.69,0,1,0-5.66,5.75A5.71,5.71,0,0,0,54.73,113.94Z"/><path class="cls-3" d="M38.61,35.89c1.08-2.19,2.83-3,5.25-2.89,3.68.14,7.37,0,11,0,3,0,4.55,1.54,4.57,4.57,0,1.1,0,2.2,0,3.51H63c3.21,0,6.42,0,9.63,0,1.72,0,2.63.82,2.69,2.24s-.89,2.44-2.65,2.46c-4.31,0-8.62,0-13.2,0,0,1.27,0,2.46,0,3.64,0,2.82-1.59,4.39-4.41,4.41-3.74,0-7.48-.1-11.21,0-2.42.09-4.17-.71-5.25-2.88Zm4.81,13.2H54.64V37.89H43.42Z"/><path class="cls-3" d="M200.52,114.05a10.42,10.42,0,0,1-20.37,3.07,10.27,10.27,0,0,1,5.41-12.46c1.25-.57,1.38-1.12,1.17-2.35A67.9,67.9,0,0,0,173.85,72.8c-.19-.26-.38-.5-.56-.76-.91-1.32-.78-2.67.33-3.5a2.42,2.42,0,0,1,3.46.68c.53.65,1,1.33,1.52,2A71.5,71.5,0,0,1,191.42,102a2.35,2.35,0,0,0,1.92,2.2A10.18,10.18,0,0,1,200.52,114.05ZM190,108.31a5.69,5.69,0,1,0,5.76,5.66A5.69,5.69,0,0,0,190,108.31Z"/></g></g></g></svg>