<svg id="Layer_1" data-name="Layer 1" xmlns="http://www.w3.org/2000/svg" viewBox="0 0 238.09 226.36"><defs><style>.cls-1{fill:#2f4858;}</style></defs><path class="cls-1" d="M176.21,38.47c3,1.1,4,3.27,4,6.38q-.07,68.78,0,137.57c0,4.25-1.53,5.76-5.83,5.76H135.85c-.43,0-.87,0-1.31,0a2.18,2.18,0,0,1-.07-4.36c.44,0,.88,0,1.32,0h39.85V58.65H63.34V183.79h61.87c1.69,0,2.72.87,2.71,2.21s-1,2.18-2.74,2.18H63.64a4.49,4.49,0,0,1-4.8-4.73c0-.39,0-.78,0-1.17q0-68.71,0-137.43c0-3.1,1-5.27,4-6.37H76.21c1.11.64,1.84,1.53,1.41,2.87s-1.57,1.54-2.84,1.53c-3.41,0-6.82,0-10.23,0-.44,0-1.24.48-1.25.75-.09,3.45-.06,6.89-.06,10.4H175.75V44.92c0-2.06,0-2.06-2.11-2.06H85.22c-1.23,0-2.37-.09-2.9-1.43s.29-2.19,1.2-3Z"/><path class="cls-1" d="M119.47,64.19h39.17q6.12,0,6.14,6.09V89.72c0,4-2.1,6-6,6H80.25c-4,0-6.06-2.1-6.06-6q0-9.78,0-19.58c0-3.87,2.1-6,6-6ZM160.31,70l-33,9.86,0,.33,33,9.84Zm-81.64.28V89.72l32.13-9.59,0-.33Zm69.89,21.11.07-.19a4.91,4.91,0,0,0-.63-.26q-14.1-4.22-28.23-8.39a3.43,3.43,0,0,0-1.82.1c-6.81,2-13.6,4-20.4,6.07l-8.31,2.46.05.21Zm.08-22.5-.08-.15H89.16c.44.18.56.25.7.29q14.25,4.24,28.51,8.47a3.22,3.22,0,0,0,1.68-.1c5.45-1.6,10.9-3.23,16.35-4.85Z"/><path class="cls-1" d="M116.94,129.71c0,7.15,0,14.31,0,21.47,0,3.41-1.24,4.67-4.67,4.67q-16.65,0-33.31,0c-3.48,0-4.76-1.29-4.76-4.76V108c0-3.45,1.29-4.74,4.78-4.74q16.65,0,33.31,0c3.42,0,4.65,1.25,4.65,4.68Q116.95,118.82,116.94,129.71ZM95.65,126.1l14.59-18.31H81.13Zm14.43,25.26L95.63,133.15,81.11,151.36Zm-31.42-39.6v35.62l14.17-17.77Zm33.84.25L98.44,129.62c4.62,5.83,9.22,11.63,14.06,17.71Z"/><path class="cls-1" d="M157.25,107.64c-3.31,0-6.17,0-9,0a10.65,10.65,0,0,1-1.6-.06,2,2,0,0,1-1.87-2.23,2,2,0,0,1,1.92-2c1.26-.08,2.53-.06,3.8-.06,3,0,6,0,9.06,0s4.34,1.43,4.34,4.3q0,22,0,44c0,2.82-1.41,4.28-4.2,4.29q-17.17,0-34.34,0c-2.85,0-4.22-1.39-4.22-4.25q0-22.07,0-44.13c0-2.78,1.38-4.16,4.13-4.19,4.14,0,8.28,0,12.42,0,1.77,0,2.66.81,2.63,2.23s-.93,2.12-2.73,2.14c-2.63,0-5.26,0-7.89,0-.47,0-.93,0-1.71.07l14.58,18.37ZM128,151.31h28.9l-14.42-18.16Zm31.36-4V112l-14.06,17.62C150,135.49,154.56,141.27,159.39,147.35Zm-33.8,0,14.13-17.7-14.13-17.81Z"/><path class="cls-1" d="M100.33,167.06c1.51,0,3,0,4.52,0a2.18,2.18,0,1,1,0,4.35c-3.06.05-6.13.05-9.19,0a2.12,2.12,0,0,1-2.25-2.32c.07-1.24.91-2,2.38-2S98.82,167.06,100.33,167.06Z"/><path class="cls-1" d="M138.69,167.06c1.51,0,3,0,4.53,0a2.09,2.09,0,0,1,2.31,2.08,2.13,2.13,0,0,1-2.31,2.27c-3,.05-6,.05-9,0a2.19,2.19,0,0,1-2.41-2.19,2.17,2.17,0,0,1,2.4-2.16C135.68,167,137.19,167.06,138.69,167.06Z"/><path class="cls-1" d="M119.51,167.06c1.51,0,3,0,4.52,0a2.16,2.16,0,0,1,2.35,2.08,2.2,2.2,0,0,1-2.33,2.27q-4.6.08-9.19,0a2.18,2.18,0,1,1,.13-4.34C116.5,167,118,167.06,119.51,167.06Z"/><path class="cls-1" d="M81.32,167.06c1.46,0,2.92,0,4.38,0a2.17,2.17,0,1,1,.09,4.34c-3.11.06-6.23.06-9.34,0a2.17,2.17,0,1,1,.06-4.34C78.11,167,79.72,167.06,81.32,167.06Z"/><path class="cls-1" d="M157.91,171.44c-1.46,0-2.92,0-4.37,0-1.63,0-2.55-.85-2.56-2.18s.88-2.17,2.51-2.19c2.92,0,5.83,0,8.75,0,1.51,0,2.46.83,2.52,2.07a2.28,2.28,0,0,1-2.47,2.3C160.83,171.47,159.37,171.44,157.91,171.44Z"/><path class="cls-1" d="M69.9,46.31c1.78,0,2.73.71,2.8,2a2.2,2.2,0,0,1-2.11,2.33c-2,.25-3.36-.39-3.66-1.78C66.6,47.35,67.8,46.3,69.9,46.31Z"/><path class="cls-1" d="M88.55,50.7c-2,0-3.2-1.07-2.87-2.57A2.18,2.18,0,0,1,88,46.31c2-.08,3,.35,3.39,1.53C91.86,49.49,90.66,50.7,88.55,50.7Z"/><path class="cls-1" d="M79.22,46.31c1.87,0,2.83.74,2.85,2.15s-1,2.22-2.78,2.24-3-.77-3-2.18S77.31,46.31,79.22,46.31Z"/></svg>